{
    "asset" : {
        "generator" : "Khronos glTF Blender I/O v1.4.40",
        "version" : "2.0"
    },
    "scene" : 0,
    "scenes" : [
        {
            "name" : "Scene",
            "nodes" : [
                0
            ]
        }
    ],
    "nodes" : [
        {
            "mesh" : 0,
            "name" : "Die20"
        }
    ],
    "meshes" : [
        {
            "name" : "Icosphere",
            "primitives" : [
                {
                    "attributes" : {
                        "POSITION" : 0,
                        "NORMAL" : 1,
                        "TEXCOORD_0" : 2,
                        "COLOR_0" : 3
                    },
                    "indices" : 4
                }
            ]
        }
    ],
    "accessors" : [
        {
            "bufferView" : 0,
            "componentType" : 5126,
            "count" : 240,
            "max" : [
                0.877189040184021,
                0.944225549697876,
                0.8342482447624207
            ],
            "min" : [
                -0.877189040184021,
                -0.944225549697876,
                -0.8342482447624207
            ],
            "type" : "VEC3"
        },
        {
            "bufferView" : 1,
            "componentType" : 5126,
            "count" : 240,
            "type" : "VEC3"
        },
        {
            "bufferView" : 2,
            "componentType" : 5126,
            "count" : 240,
            "type" : "VEC2"
        },
        {
            "bufferView" : 3,
            "componentType" : 5123,
            "count" : 240,
            "normalized" : true,
            "type" : "VEC4"
        },
        {
            "bufferView" : 4,
            "componentType" : 5123,
            "count" : 348,
            "type" : "SCALAR"
        }
    ],
    "bufferViews" : [
        {
            "buffer" : 0,
            "byteLength" : 2880,
            "byteOffset" : 0
        },
        {
            "buffer" : 0,
            "byteLength" : 2880,
            "byteOffset" : 2880
        },
        {
            "buffer" : 0,
            "byteLength" : 1920,
            "byteOffset" : 5760
        },
        {
            "buffer" : 0,
            "byteLength" : 1920,
            "byteOffset" : 7680
        },
        {
            "buffer" : 0,
            "byteLength" : 696,
            "byteOffset" : 9600
        }
    ],
    "buffers" : [
        {
            "byteLength" : 10296,
            "uri" : "data:application/octet-stream;base64,"
        }
    ]
}
