{
    "asset" : {
        "generator" : "Khronos glTF Blender I/O v1.4.40",
        "version" : "2.0"
    },
    "scene" : 0,
    "scenes" : [
        {
            "name" : "Scene",
            "nodes" : [
                0
            ]
        }
    ],
    "nodes" : [
        {
            "mesh" : 0,
            "name" : "Die4"
        }
    ],
    "meshes" : [
        {
            "name" : "Cone.001",
            "primitives" : [
                {
                    "attributes" : {
                        "POSITION" : 0,
                        "NORMAL" : 1,
                        "TEXCOORD_0" : 2,
                        "COLOR_0" : 3
                    },
                    "indices" : 4
                }
            ]
        }
    ],
    "accessors" : [
        {
            "bufferView" : 0,
            "componentType" : 5126,
            "count" : 48,
            "max" : [
                0.7387977242469788,
                0.8521638512611389,
                0.4659475088119507
            ],
            "min" : [
                -0.73939049243927,
                -0.3527061343193054,
                -0.815169632434845
            ],
            "type" : "VEC3"
        },
        {
            "bufferView" : 1,
            "componentType" : 5126,
            "count" : 48,
            "type" : "VEC3"
        },
        {
            "bufferView" : 2,
            "componentType" : 5126,
            "count" : 48,
            "type" : "VEC2"
        },
        {
            "bufferView" : 3,
            "componentType" : 5123,
            "count" : 48,
            "normalized" : true,
            "type" : "VEC4"
        },
        {
            "bufferView" : 4,
            "componentType" : 5123,
            "count" : 60,
            "type" : "SCALAR"
        }
    ],
    "bufferViews" : [
        {
            "buffer" : 0,
            "byteLength" : 576,
            "byteOffset" : 0
        },
        {
            "buffer" : 0,
            "byteLength" : 576,
            "byteOffset" : 576
        },
        {
            "buffer" : 0,
            "byteLength" : 384,
            "byteOffset" : 1152
        },
        {
            "buffer" : 0,
            "byteLength" : 384,
            "byteOffset" : 1536
        },
        {
            "buffer" : 0,
            "byteLength" : 120,
            "byteOffset" : 1920
        }
    ],
    "buffers" : [
        {
            "byteLength" : 2040,
            "uri" : "data:application/octet-stream;base64,"
        }
    ]
}
