{
    "asset" : {
        "generator" : "Khronos glTF Blender I/O v1.2.75",
        "version" : "2.0"
    },
    "scene" : 0,
    "scenes" : [
        {
            "name" : "Scene",
            "nodes" : [
                0
            ]
        }
    ],
    "nodes" : [
        {
            "mesh" : 0,
            "name" : "Pot"
        }
    ],
    "meshes" : [
        {
            "name" : "Cylinder",
            "primitives" : [
                {
                    "attributes" : {
                        "POSITION" : 0,
                        "NORMAL" : 1,
                        "TEXCOORD_0" : 2,
                        "COLOR_0" : 3
                    },
                    "indices" : 4
                }
            ]
        }
    ],
    "accessors" : [
        {
            "bufferView" : 0,
            "componentType" : 5126,
            "count" : 372,
            "max" : [
                0.313098669052124,
                0.5789974927902222,
                0.3130987286567688
            ],
            "min" : [
                -0.3130987882614136,
                -1.4901161193847656e-08,
                -0.3130987584590912
            ],
            "type" : "VEC3"
        },
        {
            "bufferView" : 1,
            "componentType" : 5126,
            "count" : 372,
            "type" : "VEC3"
        },
        {
            "bufferView" : 2,
            "componentType" : 5126,
            "count" : 372,
            "type" : "VEC2"
        },
        {
            "bufferView" : 3,
            "componentType" : 5126,
            "count" : 372,
            "type" : "VEC4"
        },
        {
            "bufferView" : 4,
            "componentType" : 5123,
            "count" : 372,
            "type" : "SCALAR"
        }
    ],
    "bufferViews" : [
        {
            "buffer" : 0,
            "byteLength" : 4464,
            "byteOffset" : 0
        },
        {
            "buffer" : 0,
            "byteLength" : 4464,
            "byteOffset" : 4464
        },
        {
            "buffer" : 0,
            "byteLength" : 2976,
            "byteOffset" : 8928
        },
        {
            "buffer" : 0,
            "byteLength" : 5952,
            "byteOffset" : 11904
        },
        {
            "buffer" : 0,
            "byteLength" : 744,
            "byteOffset" : 17856
        }
    ],
    "buffers" : [
        {
            "byteLength" : 18600,
            "uri" : "data:application/octet-stream;base64,"
        }
    ]
}
